# 3ds Max Wavefront OBJ Exporter v0.97b - (c)2007 guruware
# File Created: 15.04.2018 19:32:15

mtllib High_Rent_Door_Frame.mtl

#
# object High_Rent_Door_Frame
#

v  -16.0000 256.0144 -0.0000
v  0.0000 256.0144 -0.0000
v  -2.8927 252.1690 12.0841
v  -13.8957 252.1690 12.0841
v  16.0000 266.0199 10.3793
v  16.0000 266.0199 24.0000
v  2.9663 262.9002 24.0000
v  10.6560 262.9002 10.3793
v  16.0000 266.0199 -202.3793
v  10.6560 262.9002 -202.3793
v  3.9271 256.0144 -0.0000
v  3.9271 256.0144 -192.0000
v  0.0000 256.0144 -192.0000
v  -16.0000 256.0144 -192.0000
v  2.9663 262.9002 -216.0000
v  16.0000 266.0199 -216.0000
v  -13.8957 252.1689 -204.0841
v  -2.8927 252.1690 -204.0841
v  -20.7155 256.0144 -0.0000
v  -20.7155 256.0144 -192.0000
v  -27.4444 262.9002 10.3793
v  -27.4444 262.9002 -202.3793
v  -32.0000 266.0200 10.4196
v  -32.0000 266.0199 -202.3390
v  -19.7445 262.9002 -216.0000
v  -32.0000 266.0199 -216.0000
v  -19.7445 262.9002 24.0000
v  -32.0000 266.0200 24.0000
v  -16.0000 282.0762 16.0000
v  0.0000 282.0762 16.0000
v  0.0720 282.0762 5.9584
v  -24.9645 282.0762 16.2150
v  -24.9645 282.0762 6.1734
v  -24.9646 282.0762 -198.1734
v  -24.9646 282.0762 -208.2150
v  -16.0000 282.0762 -208.4301
v  -16.0720 282.0762 -198.3884
v  0.0000 282.0762 -208.4301
v  0.0720 282.0762 -198.3884
v  -16.0720 282.0762 5.9584
v  8.1761 282.0762 -208.2150
v  8.1761 282.0762 -198.1734
v  8.1761 282.0762 6.1734
v  8.1761 282.0762 16.2150
v  -13.8957 0.0000 -204.0841
v  -2.8927 0.0000 -204.0841
v  0.0000 0.0000 -192.0000
v  3.9271 0.0000 -192.0000
v  10.6560 0.0000 -202.3793
v  2.9663 0.0000 -216.0000
v  -19.7445 0.0000 -216.0000
v  -27.4444 0.0000 -202.3793
v  -20.7155 0.0000 -192.0000
v  -16.0000 0.0000 -192.0000
v  -19.7445 0.0000 24.0000
v  -27.4444 0.0000 10.3793
v  -20.7155 0.0000 -0.0000
v  -16.0000 0.0000 -0.0000
v  -13.8957 0.0000 12.0841
v  -2.8927 0.0000 12.0841
v  0.0000 0.0000 -0.0000
v  3.9271 0.0000 -0.0000
v  10.6560 0.0000 10.3793
v  2.9663 0.0000 24.0000
# 64 vertices

vn 0.2433 -0.8293 -0.5030
vn -0.3762 -0.6786 -0.6309
vn -0.3447 -0.6755 -0.6519
vn 0.4477 -0.6108 -0.6531
vn 0.8047 -0.5809 0.1222
vn 0.6789 -0.3921 0.6208
vn 0.4249 -0.5146 0.7448
vn 0.8727 -0.4728 0.1219
vn 1.0000 0.0054 -0.0000
vn 0.8032 -0.5941 -0.0440
vn 0.6922 -0.6377 -0.3379
vn 0.6374 -0.5586 0.5307
vn -0.2345 -0.8289 0.5078
vn 0.3899 -0.6781 0.6231
vn 0.3304 -0.2753 -0.9028
vn 0.6802 -0.3297 -0.6548
vn 0.3536 -0.6840 0.6381
vn -0.4292 -0.6089 0.6671
vn -0.6374 -0.5586 -0.5307
vn -0.6374 -0.5586 0.5307
vn -0.8742 -0.4812 0.0648
vn -0.8862 -0.4452 -0.1283
vn -0.9614 -0.2751 -0.0000
vn -0.9483 -0.3121 -0.0572
vn -0.3709 -0.2760 -0.8867
vn -0.6759 -0.4027 -0.6172
vn -0.3326 -0.2682 0.9041
vn -0.6745 -0.3296 0.6607
vn 0.0067 0.7718 0.6358
vn -0.0137 0.8370 0.5471
vn 0.0000 1.0000 -0.0000
vn -0.5875 0.5286 0.6127
vn -0.5471 0.8371 -0.0000
vn -0.4512 0.7875 -0.4199
vn 0.0060 0.8304 -0.5572
vn 0.0068 0.8251 -0.5650
vn 0.1892 0.8101 -0.5550
vn 0.3810 0.9246 -0.0000
vn 0.5301 0.8480 -0.0000
vn 0.4216 0.7936 0.4386
vn 0.8990 0.4380 -0.0000
vn 0.6436 0.0000 0.7654
vn -0.6194 0.0000 0.7851
vn 0.4775 0.0000 0.8786
vn 0.9995 0.0000 0.0306
vn 0.5042 0.0000 -0.8636
vn -0.5039 0.0000 -0.8637
vn -0.9995 0.0000 0.0303
vn -0.4775 0.0000 0.8786
vn -0.5039 0.0000 0.8637
vn -0.9995 0.0000 -0.0303
vn -0.4775 0.0000 -0.8786
vn 0.6436 0.0000 -0.7654
vn -0.6194 0.0000 -0.7851
vn 0.4775 0.0000 -0.8786
vn 0.9995 0.0000 -0.0306
vn 0.5042 0.0000 0.8636
# 57 vertex normals

vt 0.1064 0.7932 0.7932
vt 0.2367 0.7932 0.7932
vt 0.2128 0.8495 0.8495
vt 0.1303 0.8495 0.8495
vt 0.3312 0.8402 0.8402
vt 0.3312 0.8894 0.8894
vt 0.3001 0.8894 0.8894
vt 0.3008 0.8402 0.8402
vt 0.3312 0.0736 0.0736
vt 0.3008 0.0736 0.0736
vt 0.2578 0.7932 0.7932
vt 0.2578 0.1233 0.1233
vt 0.2367 0.1233 0.1233
vt 0.1064 0.1233 0.1233
vt 0.3001 0.0244 0.0244
vt 0.3312 0.0244 0.0244
vt 0.1303 0.0671 0.0671
vt 0.2128 0.0671 0.0671
vt 0.0883 0.7932 0.7932
vt 0.0883 0.1233 0.1233
vt 0.0417 0.8402 0.8402
vt 0.0417 0.0736 0.0736
vt 0.0192 0.8402 0.8402
vt 0.0192 0.0736 0.0736
vt 0.0423 0.0244 0.0244
vt 0.0192 0.0244 0.0244
vt 0.0423 0.8894 0.8894
vt 0.0192 0.8894 0.8894
vt 0.4429 0.1110 0.1110
vt 0.4991 0.1110 0.1110
vt 0.4994 0.1489 0.1489
vt 0.5136 0.0273 0.0273
vt 0.6002 0.0252 0.0252
vt 0.4276 0.0273 0.0273
vt 0.4168 0.1110 0.1110
vt 0.4168 0.1489 0.1489
vt 0.3378 0.1330 0.1330
vt 0.3378 0.7549 0.7549
vt 0.4168 0.7391 0.7391
vt 0.3489 0.8627 0.8627
vt 0.4168 0.7770 0.7770
vt 0.3489 0.0252 0.0252
vt 0.4429 0.7770 0.7770
vt 0.4426 0.7391 0.7391
vt 0.4991 0.7770 0.7770
vt 0.4994 0.7391 0.7391
vt 0.4426 0.1489 0.1489
vt 0.4276 0.8606 0.8606
vt 0.5136 0.8606 0.8606
vt 0.6112 0.7549 0.7549
vt 0.6002 0.8627 0.8627
vt 0.5282 0.7770 0.7770
vt 0.5282 0.7391 0.7391
vt 0.5282 0.1489 0.1489
vt 0.5282 0.1110 0.1110
vt 0.6112 0.1330 0.1330
vt 0.9373 0.0479 0.0479
vt 0.9881 0.0479 0.0479
vt 0.9883 0.9550 0.9550
vt 0.9375 0.9550 0.9550
vt 0.9241 0.9550 0.9550
vt 0.9228 0.0341 0.0341
vt 0.9061 0.9550 0.9550
vt 0.9060 0.0341 0.0341
vt 0.8751 0.9545 0.9545
vt 0.8749 0.0094 0.0094
vt 0.8316 0.9545 0.9545
vt 0.8314 0.0094 0.0094
vt 0.7469 0.9546 0.9546
vt 0.7467 0.0094 0.0094
vt 0.6993 0.9546 0.9546
vt 0.6991 0.0094 0.0094
vt 0.6482 0.9550 0.9550
vt 0.6481 0.0341 0.0341
vt 0.6300 0.9550 0.9550
vt 0.6312 0.0341 0.0341
vt 0.6166 0.9550 0.9550
vt 0.6166 0.0479 0.0479
vt 0.8314 0.9546 0.9546
vt 0.8749 0.9546 0.9546
vt 0.9060 0.9550 0.9550
vt 0.9375 0.0479 0.0479
vt 0.9883 0.0479 0.0479
vt 0.6299 0.9550 0.9550
vt 0.6481 0.9550 0.9550
vt 0.6989 0.0094 0.0094
vt 0.6989 0.9546 0.9546
vt 0.7463 0.0094 0.0094
vt 0.7463 0.9546 0.9546
# 89 texture coords

g High_Rent_Door_Frame
usemtl _High_Rent_Door_FrameHigh_Rent_Door_Frame_Diffuse_shader
s 1
f 1/1/1 2/2/2 3/3/3 
s 2
f 3/3/3 4/4/4 1/1/1 
s 3
f 5/5/5 6/6/6 7/7/7 
s 4
f 7/7/7 8/8/8 5/5/5 
s 5
f 9/9/9 5/5/5 8/8/8 
s 6
f 8/8/8 10/10/10 9/9/9 
s 7
f 10/10/10 8/8/8 11/11/11 
s 8
f 11/11/11 12/12/12 10/10/10 
s 9
f 12/12/12 11/11/11 2/2/2 
s 10
f 2/2/2 13/13/13 12/12/12 
s 11
f 13/13/13 2/2/2 1/1/1 
s 12
f 1/1/1 14/14/14 13/13/13 
s 13
f 10/10/10 15/15/15 16/16/16 
s 14
f 16/16/16 9/9/9 10/10/10 
s 15
f 13/13/13 14/14/14 17/17/17 
s 16
f 17/17/17 18/18/18 13/13/13 
s 17
f 14/14/14 1/1/1 19/19/19 
s 18
f 19/19/19 20/20/20 14/14/14 
s 19
f 20/20/20 19/19/19 21/21/21 
s 20
f 21/21/21 22/22/22 20/20/20 
s 21
f 22/22/22 21/21/21 23/23/23 
s 22
f 23/23/23 24/24/24 22/22/22 
s 23
f 25/25/25 22/22/22 24/24/24 
s 24
f 24/24/24 26/26/26 25/25/25 
s 25
f 21/21/21 27/27/27 28/28/28 
s 26
f 28/28/28 23/23/23 21/21/21 
s 27
f 29/29/29 30/30/30 31/31/31 
s 28
f 30/30/30 7/32/7 6/33/6 
s 29
f 27/34/27 7/32/7 30/30/30 
s 30
f 30/30/30 29/29/29 27/34/27 
s 31
f 27/34/27 29/29/29 32/35/32 
s 32
f 33/36/33 32/35/31 29/29/31 
s 33
f 32/35/32 33/36/33 23/37/23 
s 34
f 24/38/24 23/37/23 33/36/33 
s 35
f 33/36/33 34/39/33 24/38/24 
s 36
f 26/40/26 24/38/24 34/39/33 
s 37
f 34/39/33 35/41/34 26/40/26 
s 38
f 23/37/23 28/42/28 32/35/32 
s 39
f 32/35/32 28/42/28 27/34/27 
s 40
f 26/40/26 35/41/34 36/43/35 
s 41
f 37/44/31 36/43/35 35/41/34 
s 42
f 38/45/36 36/43/35 37/44/31 
s 43
f 37/44/31 39/46/31 38/45/36 
s 44
f 31/31/31 39/46/31 37/44/31 
s 45
f 37/44/31 40/47/31 31/31/31 
s 46
f 31/31/31 40/47/31 29/29/29 
s 47
f 29/29/29 40/47/31 33/36/33 
s 48
f 34/39/33 33/36/33 40/47/31 
s 49
f 40/47/31 37/44/31 34/39/33 
s 50
f 35/41/34 34/39/33 37/44/31 
s 51
f 36/43/35 25/48/25 26/40/26 
s 52
f 15/49/15 25/48/25 36/43/35 
s 53
f 36/43/35 38/45/36 15/49/15 
s 54
f 9/50/9 16/51/16 41/52/37 
s 55
f 41/52/37 16/51/16 15/49/15 
s 56
f 15/49/15 38/45/36 41/52/37 
s 57
f 42/53/38 41/52/37 38/45/36 
s 58
f 38/45/36 39/46/31 42/53/38 
s 59
f 43/54/39 42/53/38 39/46/31 
s 60
f 39/46/31 31/31/31 43/54/39 
s 61
f 44/55/40 43/54/39 31/31/31 
s 62
f 31/31/31 30/30/30 44/55/40 
s 63
f 6/33/6 44/55/40 30/30/30 
s 64
f 41/52/41 42/53/41 9/50/9 
s 65
f 5/56/5 9/50/9 42/53/38 
s 66
f 42/53/38 43/54/39 5/56/5 
s 67
f 6/33/6 5/56/5 43/54/39 
s 68
f 43/54/39 44/55/40 6/33/6 
s 69
f 18/57/18 17/58/17 45/59/42 
s 70
f 45/59/42 46/60/43 18/57/18 
s 71
f 18/57/18 46/60/43 47/61/43 
s 72
f 47/61/43 13/62/13 18/57/18 
s 73
f 13/62/13 47/61/43 48/63/44 
s 74
f 48/63/44 12/64/12 13/62/13 
s 75
f 12/64/12 48/63/44 49/65/45 
s 76
f 49/65/45 10/66/10 12/64/12 
s 77
f 10/66/10 49/65/45 50/67/46 
s 78
f 50/67/46 15/68/15 10/66/10 
s 79
f 15/68/15 50/67/46 51/69/47 
s 80
f 51/69/47 25/70/25 15/68/15 
s 81
f 25/70/25 51/69/47 52/71/48 
s 82
f 52/71/48 22/72/22 25/70/25 
s 83
f 22/72/22 52/71/48 53/73/49 
s 84
f 53/73/49 20/74/20 22/72/22 
s 85
f 20/74/20 53/73/49 54/75/42 
s 86
f 54/75/42 14/76/14 20/74/20 
s 87
f 14/76/14 54/75/42 45/77/42 
s 88
f 45/77/42 17/78/17 14/76/14 
s 89
f 55/79/50 27/68/27 21/66/21 
s 90
f 21/66/21 56/80/51 55/79/50 
s 91
f 56/80/51 21/66/21 19/64/19 
s 92
f 19/64/19 57/81/52 56/80/51 
s 93
f 57/81/52 19/64/19 1/62/1 
s 94
f 1/62/1 58/61/53 57/81/52 
s 95
f 58/61/53 1/62/1 4/82/4 
s 96
f 4/82/4 59/60/53 58/61/53 
s 97
f 60/59/54 59/60/53 4/82/4 
s 98
f 4/82/4 3/83/3 60/59/54 
s 99
f 60/77/54 3/78/3 2/76/2 
s 100
f 2/76/2 61/84/54 60/77/54 
s 101
f 61/84/54 2/76/2 11/74/11 
s 102
f 11/74/11 62/85/55 61/84/54 
s 103
f 62/85/55 11/74/11 8/86/8 
s 104
f 8/86/8 63/87/56 62/85/55 
s 105
f 63/87/56 8/86/8 7/88/7 
s 106
f 7/88/7 64/89/57 63/87/56 
s 107
f 64/89/57 7/88/7 27/68/27 
s 108
f 27/68/27 55/79/50 64/89/57 
# 108 faces

